<?xml version="1.0" encoding="iso-8859-1"?>
<!-- Generator: Adobe Illustrator 19.0.0, SVG Export Plug-In . SVG Version: 6.00 Build 0)  -->
<svg version="1.1" id="Capa_1" xmlns="http://www.w3.org/2000/svg" xmlns:xlink="http://www.w3.org/1999/xlink" x="0px" y="0px"
	 viewBox="0 0 512 512" style="enable-background:new 0 0 512 512;" xml:space="preserve">
<g>
	<g>
		<path d="M504.32,286.72L238.08,7.68C232.96,2.56,225.28,0,220.16,0H25.6C10.24,0,0,10.24,0,25.6v194.56
			c0,7.68,2.56,12.8,7.68,17.92l279.04,266.24c10.24,10.24,25.6,10.24,35.84,0l181.76-181.76
			C514.56,312.32,514.56,296.96,504.32,286.72z M94.72,94.72c-10.24,10.24-25.6,10.24-35.84,0c-10.24-10.24-10.24-25.6,0-35.84
			s25.6-10.24,35.84,0C104.96,69.12,104.96,84.48,94.72,94.72z"/>
	</g>
</g>
<g>
</g>
<g>
</g>
<g>
</g>
<g>
</g>
<g>
</g>
<g>
</g>
<g>
</g>
<g>
</g>
<g>
</g>
<g>
</g>
<g>
</g>
<g>
</g>
<g>
</g>
<g>
</g>
<g>
</g>
</svg>
